<svg xmlns="http://www.w3.org/2000/svg" width="32" height="32" enable-background="new 0 0 32 32" fill="white" viewBox="0 0 32 32"><path d="M16,2.998C8.831,2.998,2.998,8.831,2.998,16c0,7.169,5.833,13.002,13.002,13.002c7.169,0,13.002-5.833,13.002-13.002
		C29.002,8.831,23.169,2.998,16,2.998z M16,27.002C9.934,27.002,4.998,22.066,4.998,16S9.934,4.998,16,4.998S27.002,9.934,27.002,16
		S22.066,27.002,16,27.002z"/><path d="M24.012,15.021l-7.005-0.009l0.009-7.005c0,0,0-0.001,0-0.001c0-0.552-0.447-1-0.999-1c-0.552,0-1.001,0.446-1.001,0.999
		l-0.009,7.006L8.001,15C8.001,15,8,15,8,15c-0.552,0-1,0.447-1,0.999C7,16.551,7.446,17,7.999,17l7.005,0.009l-0.009,7.006v0.001
		c0,0.552,0.446,0.999,0.998,1c0.552,0.001,1.001-0.446,1.001-0.999l0.009-7.005l7.006,0.009h0.001c0.552,0,0.999-0.446,1-0.998
		C25.012,15.47,24.564,15.021,24.012,15.021z"/></svg>