<?xml version="1.0" encoding="UTF-8"?><svg xmlns="http://www.w3.org/2000/svg" xmlns:xlink="http://www.w3.org/1999/xlink" version="1.1" id="Layer_1" x="0px" y="0px" viewBox="0 0 24 24" xml:space="preserve"><path fill="#68B345" d="M19.556 14.815a10.22 10.22 0 0 1-3.21-.511c-.511-.175-1.256.131-1.427.3-.463.46-1.776 1.772-1.776 1.772a13.413 13.413 0 0 1-5.51-5.527S8.897 9.575 9.35 9.133c.286-.28.523-.946.358-1.474a10.235 10.235 0 0 1-.514-3.215C9.194 3.648 8.546 3 7.75 3H4.444C3.648 3 3 3.648 3 4.444 3 13.574 10.427 21 19.556 21c.796 0 1.444-.648 1.444-1.444v-3.297c0-.796-.648-1.444-1.444-1.444z"/><path opacity="0.2" fill="#FFF" d="M19.556 14.815a10.22 10.22 0 0 1-3.21-.511c-.487-.167-1.03-.046-1.453.322l-3.952 3.952.012.006 3.795-3.708c.433-.368.99-.49 1.488-.322 1.05.339 2.157.51 3.285.51.816 0 1.479.649 1.479 1.445v-.25c0-.796-.648-1.444-1.444-1.444z"/><linearGradient id="SVGID_1_" gradientUnits="userSpaceOnUse" x1="6.6618223" y1="12.4025908" x2="11.0309496" y2="16.7717171"><stop offset="0" stop-color="#010101" stop-opacity="0.1"/><stop offset="1" stop-color="#010101" stop-opacity="0"/></linearGradient><path fill="url(#SVGID_1_)" d="M13.143 16.376a13.413 13.413 0 0 1-5.51-5.527l-2.197 2.196a16.652 16.652 0 0 0 5.52 5.519l2.187-2.188z"/><path opacity="0.2" fill="#FFF" d="M9.194 4.444C9.194 3.648 8.546 3 7.75 3H4.444C3.648 3 3 3.648 3 4.444c0 .063.006.125.006.187A1.443 1.443 0 0 1 4.444 3.25H7.75c.796 0 1.444.648 1.444 1.444"/><path opacity="0.1" fill="#010101" d="M19.626 20.75A16.736 16.736 0 0 1 3.71 9.243c.214.71.474 1.378.778 2.045C7.097 17.011 12.867 21 19.556 21c.682 0 1.252-.477 1.402-1.114a1.459 1.459 0 0 1-1.332.864z"/><path fill="#68B345" d="M19.94 4.06l-6.365.708 1.768 1.768-2.828 2.828 2.121 2.121 2.828-2.828 1.768 1.768z"/><linearGradient id="SVGID_2_" gradientUnits="userSpaceOnUse" x1="2.4439313" y1="5.3168259" x2="23.2621307" y2="15.0245123"><stop offset="0" stop-color="#FFF" stop-opacity="0.2"/><stop offset="1" stop-color="#FFF" stop-opacity="0"/></linearGradient><path fill="url(#SVGID_2_)" d="M19.556 14.815a10.22 10.22 0 0 1-3.21-.511c-.511-.175-1.256.131-1.427.3-.463.46-1.776 1.772-1.776 1.772a13.413 13.413 0 0 1-5.51-5.527S8.897 9.575 9.35 9.133c.286-.28.523-.946.358-1.474a10.235 10.235 0 0 1-.514-3.215C9.194 3.648 8.546 3 7.75 3H4.444C3.648 3 3 3.648 3 4.444 3 13.574 10.427 21 19.556 21c.796 0 1.444-.648 1.444-1.444v-3.297c0-.796-.648-1.444-1.444-1.444zm-4.92-3.33l2.828-2.828 1.768 1.768.707-6.364-6.364.707 1.768 1.768-2.828 2.828 2.121 2.121z"/><metadata><rdf:RDF xmlns:rdf="http://www.w3.org/1999/02/22-rdf-syntax-ns#" xmlns:rdfs="http://www.w3.org/2000/01/rdf-schema#" xmlns:dc="http://purl.org/dc/elements/1.1/"><rdf:Description about="https://iconscout.com/legal#licenses" dc:title="phone,mobile,smartphone,smart,out" dc:description="phone,mobile,smartphone,smart,out" dc:publisher="Iconscout" dc:date="2017-10-27" dc:format="image/svg+xml" dc:language="en"><dc:creator><rdf:Bag><rdf:li>Those Icons</rdf:li></rdf:Bag></dc:creator></rdf:Description></rdf:RDF></metadata></svg>