<svg xmlns="http://www.w3.org/2000/svg" width="32" height="32" viewBox="0 0 32 32"><g transform="translate(0 -1020.362)"><path style="isolation:auto;mix-blend-mode:normal" fill="#FF0000" d="m 16.5,1025.8622 c -6.075132,0 -11,4.9249 -11,11 0,6.0751 4.924868,11 11,11 6.075132,0 11,-4.9249 11,-11 0,-6.0751 -4.924868,-11 -11,-11 z m 4.070312,2 c 0.405515,-0.01 0.795846,0.1541 1.082032,0.4414 l 3.408203,3.4102 c 0.585553,0.5858 0.585553,1.5353 0,2.1211 l -3.029297,3.0312 3.029297,3.0293 c 0.585553,0.5858 0.585553,1.5353 0,2.1211 l -3.408203,3.4082 c -0.586018,0.5869 -1.537029,0.5869 -2.123047,0 L 16.5,1042.3935 l -3.029297,3.0292 c -0.586018,0.5869 -1.537029,0.5869 -2.123047,0 l -3.4082029,-3.4082 c -0.5855528,-0.5858 -0.5855528,-1.5353 0,-2.121 l 3.0292969,-3.0293 -3.0292969,-3.0313 c -0.5855528,-0.5858 -0.5855528,-1.5353 0,-2.1211 l 3.4082029,-3.4101 c 0.276297,-0.2754 0.648999,-0.4324 1.039063,-0.4375 0.40562,-0.01 0.796674,0.1511 1.083984,0.4375 l 3.029297,3.0312 3.029297,-3.0293 c 0.276148,-0.2773 0.649719,-0.4357 1.041015,-0.4414 z" color="#000" overflow="visible"/><path d="m 12.402344,1028.8613 a 0.50005,0.50005 0 0 0 -0.347656,0.1465 l -3.4082036,3.4102 a 0.50005,0.50005 0 0 0 0,0.707 l 3.7382816,3.7363 -3.7382816,3.7383 a 0.50005,0.50005 0 0 0 0,0.707 l 3.4082036,3.4082 a 0.50005,0.50005 0 0 0 0.707031,0 l 3.738281,-3.7363 3.738281,3.7363 a 0.50005,0.50005 0 0 0 0.707031,0 l 3.408204,-3.4082 a 0.50005,0.50005 0 0 0 0,-0.707 l -3.738282,-3.7383 3.738282,-3.7363 a 0.50005,0.50005 0 0 0 0,-0.707 l -3.408204,-3.4102 a 0.50005,0.50005 0 0 0 -0.707031,0 l -3.738281,3.7383 -3.738281,-3.7383 a 0.50005,0.50005 0 0 0 -0.359375,-0.1465 z m 0.0059,1.2071 3.738281,3.7382 a 0.50005,0.50005 0 0 0 0.707032,0 l 3.738281,-3.7382 2.701172,2.7031 -3.738281,3.7363 a 0.50005,0.50005 0 0 0 0,0.707 l 3.738281,3.7383 -2.701172,2.7012 -3.738281,-3.7363 a 0.50005,0.50005 0 0 0 -0.707032,0 l -3.738281,3.7363 -2.7011718,-2.7012 3.7382808,-3.7383 a 0.50005,0.50005 0 0 0 0,-0.707 l -3.7382808,-3.7363 2.7011718,-2.7031 z" color="#000" font-family="sans-serif" font-weight="400" overflow="visible" white-space="normal" style="line-height:normal;text-indent:0;text-align:start;text-decoration-line:none;text-decoration-style:solid;text-decoration-color:#000;text-transform:none;block-progression:tb;isolation:auto;mix-blend-mode:normal"/><path d="m 16.5,1022.3613 0,1 c 5.461669,0 10.382554,3.2881 12.472656,8.334 2.090109,5.046 0.936223,10.8509 -2.925781,14.7129 -3.861993,3.862 -9.666963,5.0159 -14.712891,2.9258 C 6.2880582,1047.2439 3.0000051,1042.323 3,1036.8613 l -1,0 c 5.5e-6,5.8633 3.534225,11.1527 8.951172,13.3965 5.416948,2.2438 11.656774,1.0034 15.802734,-3.1426 4.145972,-4.1459 5.38637,-10.3857 3.142578,-15.8027 -2.243785,-5.4169 -7.533225,-8.9512 -13.396484,-8.9512 z" color="#000" font-family="sans-serif" font-weight="400" overflow="visible" white-space="normal" style="line-height:normal;text-indent:0;text-align:start;text-decoration-line:none;text-decoration-style:solid;text-decoration-color:#000;text-transform:none;block-progression:tb;isolation:auto;mix-blend-mode:normal"/><path d="m 15.042969,1022.4355 -0.05078,0 -0.544922,0.084 0.15039,0.9883 0.533203,-0.08 0.410157,-0.019 -0.05078,-1 z m -2.59961,0.5118 0.25,0.9687 0.96875,-0.248 -0.25,-0.9688 z m -1.564453,0.5449 -0.04492,0.019 -0.353515,0.1699 0.435547,0.9004 0.324218,-0.1562 0.554688,-0.2031 -0.34375,-0.9395 z m -2.1933591,1.168 0.5175781,0.8554 0.855469,-0.5195 -0.5195315,-0.8555 z m -1.390625,0.998 -0.037109,0.031 -0.2480469,0.2265 0.671875,0.7383 0.2402344,-0.2148 0.00977,-0.01 0.4941406,-0.3672 -0.5996093,-0.8008 z m -1.03125,0.9336 -0.033203,0.035 -0.6679688,0.7343 0.7402344,0.6719 0.6679687,-0.7344 -0.3125,-0.2832 -0.3886719,-0.4277 z m -1.7734375,2.1426 -0.027344,0.041 -0.15625,0.2598 0.8535156,0.5175 0.1503907,-0.2441 0.3984375,-0.5332 -0.8007813,-0.5977 z m -0.7285156,1.1953 -0.021484,0.043 -0.4140625,0.8574 0.9003906,0.4336 0.4082031,-0.8457 0.00586,-0.01 0,-0 -0.015625,-0.01 -0.8378906,-0.5097 z m -1.1015626,2.5976 -0.015625,0.047 -0.054687,0.2188 0.96875,0.248 0.046875,-0.1855 0.2597656,-0.7129 -0.9394532,-0.3438 z m -0.359375,1.3887 -0.00977,0.049 -0.1269531,0.8301 0.9882813,0.1504 0.1230468,-0.8008 0.033203,-0.1347 -0.96875,-0.25 z M 2,1036.8379 l 1,0.049 0.048828,-0.998 -0.9980469,-0.051 z" color="#000" font-family="sans-serif" font-weight="400" overflow="visible" white-space="normal" style="line-height:normal;text-indent:0;text-align:start;text-decoration-line:none;text-decoration-style:solid;text-decoration-color:#000;text-transform:none;block-progression:tb;isolation:auto;mix-blend-mode:normal"/></g></svg>