<?xml version="1.0" encoding="UTF-8"?><svg   width="32" height="32" xmlns="http://www.w3.org/2000/svg" xmlns:xlink="http://www.w3.org/1999/xlink" version="1.1" id="Layer_1" x="0px" y="0px" viewBox="0 0 24 24" xml:space="preserve"><path fill="#303C42" d="M23 4c0-.534-.208-1.036-.586-1.414l-1-1A2.013 2.013 0 0 0 20.001 1c-.518 0-1.037.208-1.417.588L15.211 5H3c-1.103 0-2 .897-2 2v14c0 1.103.897 2 2 2h10.5a.5.5 0 0 0 .354-.146l5-5A.5.5 0 0 0 19 17.5V8.789l3.414-3.375C22.792 5.036 23 4.534 23 4z"/><path fill="#FFCA28" d="M12.126 14.179l-.194-.387a.5.5 0 0 0-.224-.224l-.38-.19 8.157-8.156.846.846-8.205 8.11z"/><path opacity="0.1" d="M12.126 14.179l-.194-.387a.5.5 0 0 0-.224-.224l-.38-.19 8.157-8.156.846.846-8.205 8.11z"/><path fill="#FFCA28" d="M10.622 12.671l-.19-.38a.5.5 0 0 0-.447-.276h-.303l8.25-8.346.846.846-8.156 8.156z"/><path fill="#FAFAFA" d="M7.677 16.5l-.177-.177 1.323-3.308h.853l.362.724a.5.5 0 0 0 .223.223l.851.426.265.53-.172.17L7.677 16.5z"/><path fill="#D32F2F" d="M21.694 4.72l-.652.645-2.407-2.407.643-.65a1.024 1.024 0 0 1 1.414 0l1 1c.189.19.293.44.293.707s-.104.518-.291.705z"/><path opacity="0.1" d="M7.677 16.5l3.528-1.412.172-.17-.265-.53-.85-.426c-.05-.024-.075-.074-.113-.111l-2.56 2.56.088.089z"/><path opacity="0.1" d="M21.192 2.808l-1.354 1.354 1.204 1.203.652-.645c.187-.187.29-.438.29-.705s-.103-.518-.292-.707l-.5-.5z"/><path fill="#E6E6E6" d="M14 21.293V19c0-.551.448-1 1-1h2.293L14 21.293z"/><path opacity="0.2" fill="#FFF" d="M14.207 19.207c0-.551.448-1 1-1h1.879l.207-.207H15c-.552 0-1 .449-1 1v2.293l.207-.207v-1.879z"/><path fill="#FFF" d="M18 17h-3c-1.103 0-2 .897-2 2v3H3c-.552 0-1-.449-1-1V7c0-.551.448-1 1-1h11.222l-6.077 6.148a.494.494 0 0 0-.109.166l-2 5a.5.5 0 0 0 .65.65l5-2a.503.503 0 0 0 .166-.109L18 9.778V17z"/><linearGradient id="SVGID_1_" gradientUnits="userSpaceOnUse" x1="11.1288605" y1="12.8711395" x2="16.6288605" y2="18.3711395"><stop offset="0" stop-color="#000" stop-opacity="0.1"/><stop offset="1" stop-color="#000" stop-opacity="0"/></linearGradient><path fill="url(#SVGID_1_)" d="M6.686 17.964a.5.5 0 0 1-.54-.11L10.293 22H13v-3c0-1.103.897-2 2-2h3V9.778l-6.148 6.077a.503.503 0 0 1-.166.11l-5 2z"/><linearGradient id="SVGID_2_" gradientUnits="userSpaceOnUse" x1="0.7902994" y1="7.0065608" x2="19.809309" y2="15.8752699"><stop offset="0" stop-color="#FFF" stop-opacity="0.2"/><stop offset="1" stop-color="#FFF" stop-opacity="0"/></linearGradient><path fill="url(#SVGID_2_)" d="M23 4c0-.534-.208-1.036-.586-1.414l-1-1A2.013 2.013 0 0 0 20.001 1c-.518 0-1.037.208-1.417.588L15.211 5H3c-1.103 0-2 .897-2 2v14c0 1.103.897 2 2 2h10.5a.5.5 0 0 0 .354-.146l5-5A.5.5 0 0 0 19 17.5V8.789l3.414-3.375C22.792 5.036 23 4.534 23 4z"/><metadata><rdf:RDF xmlns:rdf="http://www.w3.org/1999/02/22-rdf-syntax-ns#" xmlns:rdfs="http://www.w3.org/2000/01/rdf-schema#" xmlns:dc="http://purl.org/dc/elements/1.1/"><rdf:Description about="https://iconscout.com/legal#licenses" dc:title="note,task,comment,message,edit,write" dc:description="note,task,comment,message,edit,write" dc:publisher="Iconscout" dc:date="2017-08-16" dc:format="image/svg+xml" dc:language="en"><dc:creator><rdf:Bag><rdf:li>Those Icons</rdf:li></rdf:Bag></dc:creator></rdf:Description></rdf:RDF></metadata></svg>