<svg xmlns="http://www.w3.org/2000/svg" width="64" height="64" data-name="Layer 1" viewBox="0 0 64 64"><rect width="1" height="24.382" x="16.25" y="28.535" fill="#1f58bf" transform="rotate(-61.858 16.75 40.727)"/><rect width="24.382" height="1" x="35.059" y="40.227" fill="#1f58bf" transform="rotate(-28.138 47.25 40.727)"/><path fill="#1f58bf" d="M55,59.9767a2.9925,2.9925,0,0,0,2.8039-1.96L33.5,43.8519a3,3,0,0,0-3.006-.01L6.1359,57.8228a2.9817,2.9817,0,0,0,2.5889,2.1261l3.6226.0278Z"/><path fill="#1f58bf" d="M55 60.4766H9a3.5042 3.5042 0 0 1-3.5-3.5v-22a.5007.5007 0 0 1 .1772-.3818l6.4483-5.4561.6455.7636L6.5 35.2086V56.9767a2.5029 2.5029 0 0 0 2.5 2.5H55a2.5029 2.5029 0 0 0 2.5-2.5V35.2086l-6.0044-5.0864.6465-.7628 6.1811 5.2359a.4989.4989 0 0 1 .1768.3814v22A3.5042 3.5042 0 0 1 55 60.4766zM26.3164 18.3976l-.6191-.7852.7319-.5766 3.956-3.3477a2.4942 2.4942 0 0 1 3.2295 0l3.2769 2.751-.6426.7656-3.2783-2.7519a1.4983 1.4983 0 0 0-1.94-.001z"/><path fill="#1f58bf" d="M13.04,39.0807,11.1284,21.7394a2.5,2.5,0,0,1,2.209-2.76l34.7861-3.8642a2.5013,2.5013,0,0,1,2.7608,2.209L53.1084,37.6l-.9951.0957-.1812-1.8818L49.89,17.4342a1.5,1.5,0,0,0-1.6562-1.3252L13.4477,19.9733a1.5013,1.5013,0,0,0-1.3251,1.6561l1.9116,17.3419Z"/><polygon fill="#e52e4d" points="29.677 3.523 30.742 5.553 33.001 5.167 31.4 6.807 32.465 8.836 30.411 7.82 28.81 9.46 29.141 7.193 27.087 6.177 29.346 5.791 29.677 3.523"/><polygon fill="#e52e4d" points="21.646 9.874 22.711 11.904 24.97 11.518 23.369 13.158 24.434 15.187 22.379 14.171 20.779 15.811 21.11 13.544 19.055 12.528 21.314 12.142 21.646 9.874"/><polygon fill="#e52e4d" points="39.361 6.849 40.426 8.878 42.685 8.493 41.084 10.133 42.149 12.162 40.095 11.146 38.494 12.786 38.825 10.518 36.771 9.503 39.03 9.117 39.361 6.849"/><path fill="#e52e4d" d="M26.7627 24.9323a.5.5 0 0 1-.0547-.9971l18.8838-2.0978a.5.5 0 0 1 .11.9943L26.8184 24.9293A.5268.5268 0 0 1 26.7627 24.9323zM27.2041 28.9078a.5.5 0 0 1-.0547-.997l18.8843-2.0977a.5.5 0 0 1 .11.9942L27.26 28.9049A.5264.5264 0 0 1 27.2041 28.9078zM19.2539 30.7911a1.5027 1.5027 0 0 1-1.4912-1.3344l-.4414-3.9756a1.5015 1.5015 0 0 1 1.3252-1.6563l2.4848-.2764.11.9942-2.4849.2764a.5.5 0 0 0-.4414.5517l.4414 3.9756a.5.5 0 0 0 .5528.4419l3.9751-.4419a.5.5 0 0 0 .4414-.5517L23.45 26.31l.9941-.11.2759 2.4849A1.5 1.5 0 0 1 23.395 30.34l-3.9756.442A1.5947 1.5947 0 0 1 19.2539 30.7911z"/><path fill="#e52e4d" d="M21.02 27.5826a.4983.4983 0 0 1-.312-.1093L19.604 26.59a.5.5 0 0 1 .625-.7813l.7134.5713 3.2217-4.0268a.5.5 0 1 1 .7812.625l-3.5342 4.4169A.4991.4991 0 0 1 21.02 27.5826zM27.8667 34.8712a.5.5 0 0 1-.0547-.997l18.8838-2.0978a.5.5 0 0 1 .11.9942L27.9224 34.8683A.5544.5544 0 0 1 27.8667 34.8712zM28.3081 38.8468a.5.5 0 0 1-.0547-.9971l18.8843-2.0976a.5.5 0 0 1 .11.9941L28.3638 38.8439A.5544.5544 0 0 1 28.3081 38.8468zM20.355 40.73a1.5008 1.5008 0 0 1-1.4883-1.3345L18.4253 35.42a1.4992 1.4992 0 0 1 1.3257-1.6563l3.9751-.4419a1.5011 1.5011 0 0 1 1.6567 1.3257l.4414 3.9751a1.5019 1.5019 0 0 1-1.3252 1.6567l-3.9756.4414A1.4914 1.4914 0 0 1 20.355 40.73zm3.5376-6.4175a.4471.4471 0 0 0-.0562.0034l-3.9756.4419a.4992.4992 0 0 0-.4414.5518l.4414 3.9756a.4948.4948 0 0 0 .1846.3349.4788.4788 0 0 0 .3677.1065l3.9756-.4414a.5.5 0 0 0 .4414-.5523h0l-.4414-3.9751a.5.5 0 0 0-.4961-.4453z"/></svg>